<?xml version="1.0" encoding="UTF-8"?>
<svg xmlns="http://www.w3.org/2000/svg" width="1200" height="630" viewBox="0 0 1200 630" role="img" aria-label="Capa Dog-robot-Dante - CI e estrutura de pastas" style="font-family:Inter, Roboto, Arial, sans-serif">
  <rect width="1200" height="630" fill="#0b1020" rx="8"/>

  <!-- Left: CI card -->
  <g transform="translate(40,40)">
    <rect width="560" height="550" rx="12" fill="#041022" stroke="#083048" stroke-width="1"/>
    <text x="28" y="46" fill="#cfeeff" font-size="20" font-weight="700">CI Status — GitHub Actions</text>

    <!-- badge -->
    <g transform="translate(28,70)">
      <rect x="0" y="0" width="180" height="44" rx="8" fill="#062a20"/>
      <rect x="10" y="8" width="28" height="28" rx="6" fill="#06d6a0"/>
      <path d="M18 12 L22 18 L30 10" stroke="#022a1a" stroke-width="3" fill="none" stroke-linecap="round" stroke-linejoin="round"/>
      <text x="52" y="30" fill="#ffffff" font-size="16" font-weight="700">CI: success</text>
    </g>

    <!-- faux terminal -->
    <g transform="translate(28,140)">
      <rect width="504" height="350" rx="8" fill="#001220" stroke="#06314a"/>
      <circle cx="18" cy="18" r="6" fill="#ff5f56"/>
      <circle cx="46" cy="18" r="6" fill="#ffbd2e"/>
      <circle cx="74" cy="18" r="6" fill="#27c93f"/>

      <g font-family="monospace" font-size="14" fill="#9ad6ff" transform="translate(18,46)">
        <text x="0" y="0" fill="#ffffff" font-weight="700">Run: Test (pytest) (3.11) — completed</text>
        <text x="0" y="28">Checking out repo: TaTTA-23/Dog-robot-Dante</text>
        <text x="0" y="56">Installing dependencies...</text>
        <text x="0" y="84">- pip install -r python_ai/requirements.txt</text>
        <text x="0" y="112">- pip install -e python_ai</text>
        <text x="0" y="140" fill="#06d6a0" font-weight="700">✔ 8 passed in 0.10s</text>
        <text x="0" y="168" fill="#9ad6ff">Workflow: CI — python 3.11 / 3.12</text>
      </g>
    </g>

    <text x="28" y="520" font-size="12" fill="#7aaed8">Pull request: feat/scaffold-ros2-pythonai-devcontainer — PR #2</text>
  </g>

  <!-- Right: Tree card -->
  <g transform="translate(640,40)">
    <rect width="520" height="550" rx="12" fill="#fff"/>
    <text x="28" y="46" fill="#0b1220" font-size="20" font-weight="700">Estrutura do repositório</text>

    <g transform="translate(28,90)" fill="#0b1220" font-size="14">
      <g>
        <rect x="0" y="0" width="440" height="56" rx="8" fill="#f0f6fb" stroke="#d6e7fb"/>
        <text x="16" y="34" font-weight="700">/ (repo root)</text>
        <text x="220" y="34" fill="#586f86">README.md • CHANGELOG.md</text>
      </g>

      <g transform="translate(0,80)">
        <rect x="0" y="0" width="440" height="52" rx="8" fill="#fff8e6" stroke="#fde8b7"/>
        <text x="12" y="32" font-weight="700">ros2_ws/</text>
        <text x="160" y="32" fill="#7a5a00">(ROS2 bringup)</text>
      </g>

      <g transform="translate(0,148)">
        <rect x="0" y="0" width="440" height="52" rx="8" fill="#eef8ee" stroke="#cfeccf"/>
        <text x="12" y="32" font-weight="700">python_ai/</text>
        <text x="160" y="32" fill="#246a33">(vision prototyping)</text>
      </g>

      <g transform="translate(0,216)">
        <rect x="0" y="0" width="440" height="52" rx="8" fill="#f3eef8" stroke="#e3d7f4"/>
        <text x="12" y="32" font-weight="700">src/</text>
        <text x="160" y="32" fill="#5a3b7a">(POO modules)</text>
      </g>

      <g transform="translate(0,284)">
        <rect x="0" y="0" width="440" height="52" rx="8" fill="#eef7ff" stroke="#d7ebff"/>
        <text x="12" y="32" font-weight="700">.devcontainer/</text>
        <text x="160" y="32" fill="#1f5fa8">(devcontainer.json)</text>
      </g>

      <g transform="translate(0,352)">
        <rect x="0" y="0" width="440" height="52" rx="8" fill="#fff6f6" stroke="#ffdede"/>
        <text x="12" y="32" font-weight="700">.github/</text>
        <text x="160" y="32" fill="#8a2b2b">(workflows/ci.yml)</text>
      </g>

      <g transform="translate(0,420)">
        <rect x="0" y="0" width="440" height="52" rx="8" fill="#f7fff4" stroke="#dfffd7"/>
        <text x="12" y="32" font-weight="700">tests/</text>
        <text x="160" y="32" fill="#0b6b2e">(pytest)</text>
      </g>
    </g>

    <text x="28" y="520" font-size="12" fill="#334155">Fonte: https://github.com/TaTTA-23/Dog-robot-Dante</text>
  </g>

  <!-- Footer big caption -->
  <text x="64" y="600" font-size="14" fill="#e6f4ff">Dog-robot-Dante — Scaffold ROS2 + Python AI + Devcontainer • PR #2 • CI verde</text>
</svg>
